<svg xmlns="http://www.w3.org/2000/svg" id="svg2" width="920" height="353pt" version="1.1" viewBox="0 0 690 353"><path id="path70" d="m487.22 244.03c8.31-1.48 6.97 30.31-1.27 26.04-1.05-8.24-1.67-18.44 1.27-26.04zm12.01-1.15c7.3 5.7 0.95 22.07 1.48 31.44-1.35 6.38-8.69-0.23-5.75-4.52 1.37-8.82-1.31-19.42 4.27-26.92zm-23.95-0.88c9.91-0.84 8.55 26.33-1 23.42 0.34-7.65-2.19-16.18 1-23.42zm69.05-2.82c2.17-0.15 6.87-0.25 6.59 2.75-0.85 4.48-11.41 0.51-6.59-2.75zm-81.13 0.02c6.66 1.03 4.64 12.63 3.15 17.17-8.29 2.7-5.52-13.56-3.15-17.17zm-9.83-14.15c5.89 0.03 2.46 9.02 2.02 13.08-0.39 4.34 3.99 15.58-4.1 13.77-0.82-8.34-1.82-19.87 2.08-26.85zm-10.2-0.11c6.28 3.3 5.25 20.57-0.22 25.39-5.71-5.78-2.95-18.91 0.22-25.39zm-12.93 0.16c8.39-1.76 6.05 13.98 2.62 18.02-7.25-1.31-3.54-12.46-2.62-18.02zm138.3-7.94c3.92-0.05 8.09-0.9 11.97 0.21 3.89 6.97-18.91 5.19-11.97-0.21zm13.7-22.05c4.31 1.06 15.48-2.13 15.45 3.89-4.1-2.33-16.37 3.24-15.45-3.89zm-231.07-32.35c7.27 2.14 0.69 15.14 2.42 20.78-1.46 3.41 2.18 16.69-5.08 13.97-2.28-11.11-0.48-24.44 2.66-34.75zm34.17-5.79c4.17-1.36 3.35 4.89 3.63 7.03-1.33 17.32-0.03 34.9-3.16 51.96-8.42 1.61-3.65-11.91-4.38-16.47 3.05-13.58-2.32-30.3 3.91-42.52zm12.89-6.26c6.45 20.49 0.81 49.27 0.37 72.79-5.02 3.04-6.41-5.19-5.48-8.35 2.92-21.02-0.13-44.72 5.11-64.44zm-24-0.59c6.22-1.86 3.11 7.72 3.83 10.83-1.5 16.31-0.97 32.98-3.22 49.09-8.8 1.43-3.48-12.96-4.73-17.82 3.2-13.69-0.8-29.58 4.12-42.1zm35.07-2.18c6.77 22.19-2.2 53.5 0.65 78.67 0.12 7.54-9.1 3.58-6-2.9 2.39-24.94-1.69-52.2 5.35-75.77zm-46.07 0.17c3.93-1.35 3.65 6.41 3.8 8.14-0.91 15.67-0.68 31.47-2.54 47.06-1.63 6.25-8.21 0.37-5.48-4.38 2.8-16.49-1.14-35.34 4.22-50.82zm-23.01-3.11c8.28 0.9 0.08 14.76 2.73 20.02-1.96 5.82 5.22 25.64-5.63 23.39-0.52-14.39 0.23-29.35 2.9-43.41zm81.03-3.91c5.36-1.09 3.53 6.91 3.38 10.5-0.7 27.15-3.38 54.89-3.19 81.7-2.5 4.04-6.89 0.35-6-3.4 2.58-29.4 0.37-60.45 5.81-88.8zm48.95-7.3c3.34 31.11-2.22 66.26-2.75 98.61-1.14 4.23-9.28 0.14-5.29-4.25 4.33-30.98-1.85-64.82 8.04-94.36zm-12.87 0.34c3.91-1.83 3.78 4.64 3.21 6.61-2.41 26.23-2.46 52.55-3.94 78.71 0.17 5.58-9.63 1.69-5.61-3.44 2.66-26.93 0.39-56.14 6.34-81.88zm-22.03-2c2.42-0.75 3.23 5.82 2.69 6.88-2.2 25.75 0.01 51.82-3.16 77.51-1.46 5.15-7.97 1.26-4.88-3.7 1.87-24.81 1.76-49.63 2.13-74.49 0.22-2.39 0.39-5.55 3.22-6.2zm-106-2.07c4.73 0.03 3.28 6.32 2.12 9.28 0 13.69-0.38 27.51-0.65 41.22-1.26 6.37-8.85-0.03-5.81-4.79 2.38-14.75-1.3-32.13 4.34-45.71zm118.02-3.95c3.35-1.54 5.19 3.3 3.73 5.97-1.63 28.86-2.88 57.73-4.2 86.58-1.78 3.22-6.79 1-5.74-2.67 3.59-29.46-0.24-61.63 6.21-89.88zm35.95-4.32c3.43 34.82-3.14 74.88-2.39 111.72-2.36 6.12-8.51-0.94-5.67-5.18 3.62-35.12-2.55-72.83 8.06-106.54zm39.41-18.66c36.59 1.11 73.22 3.53 109.6 6.55 2.41-0.41 2.35 2.97 0.2 3.2-36.04-1.5-72.19-3.02-108.31-4.84-3.61 0.17-6.08-3.87-1.49-4.91zm-65.49-2.02c5.26 1.44 6.74 14.52 0.88 17.08-3.89-4.62-2.38-11.66-0.88-17.08zm24.93-9.93c7.03-2.18 5.45 9.27 1.53 11.99-4.51-0.95-0.75-8.53-1.53-11.99zm12.01-1.01c7.7 17.62-1.53 42.62 3.67 61.72-5.59 22.51-2.33 46.49-5.3 69.31-3.41 5.83-6.92-3.41-5.53-6.43 2.88-41.53 2.47-83.3 7.16-124.6zm-24.07-2.28c2.62 6.65 7.55 22.71-0.11 29.16-4.73-7.5-0.03-19.96 0.11-29.16zm36.13-18.13c7.51 6.47 0.76 23.17 1.74 33.19-0.32 40.78-3.57 80.55-5.21 121.66-1.42 0.6-3.15 0.88-4.43-0.2-2.84-24.78 2.89-49.47 1.26-74.16 5.21-26.4-0.74-54.79 6.64-80.49zm42.11-26.47c36.19 2.49 73.44 2.19 108.95 8.82-34.68 3.4-72.91-2.4-108.97-3.25-4.53 0.5-4.43-6.05 0.02-5.57zm33.2-8.13c23.12-0.19 46.3 1.57 69.32 3.87 2.47-0.7 3.25 3.77 0.75 3.8-21.32-0.66-42.59-2.07-63.92-2.26-2.79 1.85-11.25-3.27-6.15-5.41zm31.9-9.99c20.55 0.63 41.33 1.19 61.56 5 0.88 2.35-0.93 3.61-3.1 3.75-19.21-1.32-38.51-1.87-57.67-4-2.77 0.64-3.17-4.48-0.79-4.75zm66.36-25.17h7.36c3.5 10.1-0.11 21.1 2.88 31.15v2.73c-7.11 104.46-9.13 209.61-14.19 314.34-0.06 2.05-1.85 3.33-3.03 4.78h-4.41c-116.89-36.49-231.98-82.93-334.09-151.28-6.56-4.16-12.81-9.03-20.19-11.68-88.01 2.01-175.9 8.5-263.78 12.54-27.82 0.2-47.73-22.06-50.31-48.33v-17.48c5.11-11.4 4.53-25.08 12.71-35.08 9.39-8.09 20.81-15.74 33.89-14.04 90.24 9.32 180.25 21.78 270.32 33.12 111.1-63.88 238.07-94.8 362.84-120.77m-10.18 11.5c-5.16 1.3-11.72 1.5-15.67 4.61 5.87 2.38 16.41-0.29 20.24 4.83-9.4 0.97-26.71 5.51-32.3-3.83-41.26 8.93-82.4 18.72-122.84 31.04 0.17 2.28 0.62 4.54 1.32 6.71 33.97 0.63 67.85 4.03 101.77 5.82 2.14-0.35 6.37 2.24 2.36 3.16-34.81 0.33-69.56-3.31-104.38-3.7-1.72 3.22 0.73 6.58 3.87 6.54 27 0.31 54.07 1.01 80.89 4.36 2.05-0.3 3.51 2.57 0.8 2.79-28.1 0.54-56.05-3.2-84.08-1.53-2.59 0.03-2.14 5.03 0.53 4.67 31.31 4.29 66.14 1.32 95.81 8.07-30.58 5.09-65.28-3.27-97.31-1.57-3.54 3.81 1.05 8.92 5.51 6.51 32.02 2.11 64.22 3.05 96.08 6.85 3.05 2.02-2.55 3.14-4.4 3.16-32.65-1.88-65.46-4.25-98.09-3.58-2.05 5.06-2.49 11.43-0.4 16.5 27.55 2.79 55.54 1.96 83.06 5.72 2.22-0.11 1.74 1.81 1.49 3.33-26.16-0.65-52.35-2.2-78.52-3.03-3.49-2.15-11.06 3.03-4.8 4.84 32.58 2.56 65.38 3.21 97.94 6.75 4.57-3.6 6.12 2.63 3.09 3.44-34.39-0.14-68.59-5.3-103.03-3.99-4.42 3.81 2.28 5.04 5.43 5.22 34.16 1.98 68.38 2.65 102.43 6.32 2.5 4.26-5.56 2.77-8.53 3.42-33.43-1.43-66.83-4.99-100.33-3.7-1.92 2.27 0.6 4.41 2.82 4.81 31.07 2.92 62.28 3.21 93.23 7.26 1.77-0.53 2.2 3.35 0.37 2.75-31.43-0.82-62.87-3.78-94.36-4.92-4.97 1.51-1.58 6.72 2.41 6 32.8 1.41 65.82 1.71 98.42 6.36 3.54 2.52-6.04 3.48-5.65 2.57-31.05-0.43-62.05-4.72-93.16-2.76-2.26 2.14 2.29 3.7 3.93 4.42 18.49 2.42 37.34 1.38 55.86 3.74 2.42 2.52-1.75 3.22-3.65 3.41-19.51-0.75-39.29-2.68-58.79-1-4-0.45-3.83 5.15-0.48 5.96 17.77 0.99 35.39 3.38 53.22 3.1 1.18-0.74 9.73 0.69 6.72 3.8-19.88 1.02-39.83-1.82-59.67-1.17-3.65-0.7-5.75 5.06-1.33 5.15 16.46 1.59 33.09 1.71 49.53 3.2 3.05-0.25 2.8 4.77-0.28 4.1-16.71-0.52-33.45-1.86-50.18-1.85-2.16 0.08-2.17 4.44-0.2 4.63 14.6 2.22 29.45 2.99 44.21 3.31 2.06 0.4 1.66 2.34 1.46 3.9-15.8 1.22-31.65-1.79-47.31-0.53-3.46 13.82 24.76-0.53 25.38 11.39-8.07 3.91-18.23-2.97-25.93 1.31-2.06 11.19 18.92-0.47 18.88 9.61-6.2 2.9-13.62-2.29-19.98 1.38-2.89 11.01 13.08 2.88 16.07 8.77-1.97 7.61-14.09-2.34-16.14 5.28-0.48 8.25 15.46 0.32 15.01 8.58-4.16 2.51-18.12-3.36-15.41 5.66 15.15 3.53 31.06 2.37 46.4 4.49 5.09 1.1-1.09 5.04-3.6 3.67-11.95-1.14-24.07-1.1-36.09-1.65-2.61 0.32-10.93-0.43-7.15 5.76 11.32 3.81 26.97-0.9 35.97 5.33-8.3 5.56-23.73-0.27-34.3 1.71-4.41 0.35-3.44 7.26 0.22 8.38 48.67 20.2 98.28 38.16 148.33 54.62 1.54 0.68 3.95 0.15 3.57-1.97 6.36-109.15 8.18-218.49 14.03-327.43-2.91-1.94-6.35-2.23-10.32-0.86m-156.24 37.76c-65.4 18.53-128.44 44.77-188.94 75.48 0.81 19.91-3.05 41.31 0.09 60.34 53.01 35.09 108.51 67.5 167.12 92.25 4.04 2.65 14.52 8.4 14.02-0.89 4.06-75.73 5.71-151.55 10.34-227.29-0.66 0.03-1.97 0.08-2.63 0.11m-470.73 53.16c-24.26 4.84-32.11 36.5-24.64 55.88-2.51-21.82 5.87-49.33 30.9-53.33 7.67-1.71-4.03-4.17-6.26-2.55m15.97 15.01c-10.71 0.66-11.37 19.5 0.22 19.9 14.91 4.61 15.72-24.57-0.22-19.9m174.79 6.52c9.96 8 30.24 6.15 43.91 8.72 2.84 2.36 10.16-1.27 4.57-2.6-16.08-2.44-32.21-5.37-48.48-6.12m69.01 11.14c-6.05 10.17-7.69 31.46 2.46 36.86-4.75-11.34 2.54-30.04-2.46-36.86m-131.83 2.31c-14.4 2.5-9.61 25.49 4.8 21.21 13.53-2.02 9.36-25.2-4.8-21.21m94.97 4.02c-6.36 1.34-11.41 9.01-8.24 15.15 3.52 10.73 24.21 7.23 22.48-4.79 1.1-7.54-8.21-10.75-14.24-10.36m-206.9 13.98c-11.99 1.52-9.65 19.85 2.56 19.43 14.1 0.7 11.1-24.23-2.56-19.43z"/></svg>