<?xml version="1.0" encoding="UTF-8" standalone="no"?>
<svg
   xmlns:dc="http://purl.org/dc/elements/1.1/"
   xmlns:cc="http://creativecommons.org/ns#"
   xmlns:rdf="http://www.w3.org/1999/02/22-rdf-syntax-ns#"
   xmlns:svg="http://www.w3.org/2000/svg"
   xmlns="http://www.w3.org/2000/svg"
   xmlns:sodipodi="http://sodipodi.sourceforge.net/DTD/sodipodi-0.dtd"
   xmlns:inkscape="http://www.inkscape.org/namespaces/inkscape"
   id="svg2"
   height="526.03589pt"
   width="945.68774pt"
   version="1.1"
   viewBox="0 0 945.68774 526.03589"
   sodipodi:docname="ᏣᎳᎩ-ᏧᎴᎯᏌᏅᎯ-ᎤᏍᏛᎪᏍᏙᏗ.svg"
   inkscape:version="0.92.3 (2405546, 2018-03-11)"
   inkscape:export-filename="ᏣᎳᎩ-ᏧᎴᎯᏌᏅᎯ-ᎤᏍᏛᎪᏍᏙᏗ.png"
   inkscape:export-xdpi="192"
   inkscape:export-ydpi="192">
  <metadata
     id="metadata8">
    <rdf:RDF>
      <cc:Work
         rdf:about="">
        <dc:format>image/svg+xml</dc:format>
        <dc:type
           rdf:resource="http://purl.org/dc/dcmitype/StillImage" />
        <dc:title></dc:title>
      </cc:Work>
    </rdf:RDF>
  </metadata>
  <defs
     id="defs6">
    <filter
       inkscape:collect="always"
       style="color-interpolation-filters:sRGB"
       id="filter863"
       x="-0.00914382"
       width="1.0182877"
       y="-0.017451039"
       height="1.0349021">
      <feGaussianBlur
         inkscape:collect="always"
         stdDeviation="3.3587002"
         id="feGaussianBlur865" />
    </filter>
  </defs>
  <sodipodi:namedview
     pagecolor="#ffffff"
     bordercolor="#666666"
     borderopacity="1"
     objecttolerance="10"
     gridtolerance="10"
     guidetolerance="10"
     inkscape:pageopacity="0"
     inkscape:pageshadow="2"
     inkscape:window-width="640"
     inkscape:window-height="480"
     id="namedview4"
     showgrid="false"
     fit-margin-top="24"
     fit-margin-left="24"
     fit-margin-right="24"
     fit-margin-bottom="24"
     inkscape:zoom="0.91201977"
     inkscape:cx="620.79739"
     inkscape:cy="318.68481"
     inkscape:current-layer="svg2" />
  <g
     id="g28"
     style="stroke:#ffffff;stroke-width:9;stroke-linejoin:round;stroke-miterlimit:4;stroke-dasharray:none;filter:url(#filter863)"
     transform="translate(32.060881,20.060879)">
    <path
       id="path18"
       d="m 631.32868,144.032 c 10.4584,2.66455 11.72316,-37.99891 0.81626,-33.32457 -2.10968,10.40929 -3.85443,23.35813 -0.81626,33.32457 z m 15.20743,2.58987 c 9.84201,-6.58571 3.27581,-28.05449 4.82813,-39.95343 -1.12474,-8.261882 -11.10291,-0.51952 -7.75516,5.22607 0.92202,11.3752 -3.48697,24.64153 2.92703,34.72736 z m -30.62304,-1.11812 c 12.55856,1.99817 13.36566,-32.77583 0.91547,-29.9583 -0.28197,9.78699 -4.3061,20.42766 -0.91547,29.9583 z m 87.78778,10.05481 c 2.7531,0.39427 8.73716,0.96145 8.66067,-2.89032 -0.66485,-5.79238 -14.50212,-1.71755 -8.66067,2.89032 z m -103.45386,-7.61415 c 8.58905,-0.69055 7.09818,-15.67162 5.62282,-21.60038 -10.31871,-4.21835 -8.3074,16.77521 -5.62282,21.60038 z m -13.85871,17.12433 c 7.51362,0.51305 3.98074,-11.27202 3.79933,-16.49049 -0.0913,-5.57074 6.54536,-19.49413 -3.94015,-17.94279 -1.82581,10.55835 -4.1795,25.16767 0.14082,34.43328 z m -13.01722,-0.81327 c 8.31685,-3.6207 8.61889,-25.73953 2.09438,-32.39753 -7.82188,6.83646 -5.53054,23.83776 -2.09438,32.39753 z m -16.47318,-1.41357 c 10.53424,3.02922 9.02259,-17.2611 5.02653,-22.73375 -9.3676,0.99237 -5.67957,15.55774 -5.02653,22.73375 z m 175.61547,23.06127 c 4.99409,0.43046 10.23208,1.90446 15.28363,0.8523 5.61245,-8.52421 -23.62829,-8.38697 -15.28363,-0.8523 z m 15.40756,29.39934 c 5.59517,-0.9486 19.54059,4.16414 20.06547,-3.51528 -5.44618,2.58763 -20.57177,-5.66285 -20.06547,3.51528 z M 450.23787,234.941 c 9.47075,-2.04884 2.29604,-19.24176 5.02971,-26.27193 -1.54284,-4.48496 4.34103,-21.07892 -5.1713,-18.28955 -3.94619,13.95415 -2.8981,31.12061 0.14159,44.56148 z m 43.03149,10.57951 c 5.19032,2.12435 4.72929,-5.92222 5.28653,-8.62497 -0.0759,-22.21062 3.22617,-44.50674 0.8306,-66.55417 -10.58645,-2.84066 -5.76844,14.84598 -7.12591,20.59251 2.61915,17.60236 -5.79256,38.42123 1.00878,54.58663 z m 15.85159,9.18837 c 10.14158,-25.52521 5.64153,-62.75257 7.28043,-92.78615 -6.11709,-4.34612 -8.65942,6.01867 -7.76905,10.13521 1.75735,27.07752 -4.34875,57.01422 0.48862,82.65094 z m -30.65959,-1.49248 c 7.75761,2.95362 4.68794,-9.55355 5.89698,-13.452 -0.3872,-20.93867 1.84789,-42.1464 0.48559,-62.90013 -11.08784,-2.64656 -5.64981,16.20095 -7.69839,22.28138 2.80001,17.75662 -3.787,37.64523 1.31582,54.07075 z m 44.51677,6.06027 c 10.70867,-27.6632 2.19891,-68.42821 8.18751,-100.25805 0.85834,-9.60366 -11.26933,-5.41643 -7.92236,3.13679 0.71488,32.02665 -7.03774,66.40657 -0.26515,97.12126 z m -58.73188,-4.52613 c 4.88519,2.08916 5.25407,-7.83244 5.60708,-10.02451 0.30537,-20.06727 2.07653,-40.19367 1.16291,-60.24785 -1.49391,-8.1224 -10.43462,-1.23973 -7.39761,5.07271 2.02802,21.28977 -4.75939,44.9584 0.62762,65.19965 z m -29.63289,1.81356 c 10.6427,-0.37319 1.48262,-18.8143 5.35386,-25.27383 -1.95494,-7.60491 9.05478,-32.20753 -4.99139,-30.35324 -2.00909,18.30136 -2.45209,37.44819 -0.36247,55.62707 z m 102.96255,12.5653 c 6.733,1.89128 5.14778,-8.48127 5.29232,-13.07324 1.64689,-34.68674 0.8241,-70.31113 3.57417,-104.48107 -2.81008,-5.38555 -8.75337,-1.09077 -7.96916,3.77437 0.53993,37.73178 -5.18251,77.11961 -0.89733,113.77994 z m 61.73748,13.88757 c 7.16912,-39.3586 3.36693,-84.70141 5.71704,-126.00331 -1.0581,-5.50062 -11.82069,-1.04659 -7.14332,4.92473 2.62375,39.91031 -8.42221,82.48445 1.42628,121.07858 z m -16.37983,-1.63745 c 4.81478,2.69936 5.25425,-5.56331 4.71161,-8.12874 -0.61963,-33.6735 1.77851,-67.24104 2.33814,-100.73838 0.73877,-7.09962 -12.12198,-3.05581 -7.47555,3.86197 0.87301,34.58947 -4.75384,71.62535 0.4258,105.00515 z m -28.27935,0.48978 c 3.01577,1.18276 4.66324,-7.11946 4.07374,-8.52168 -0.39678,-33.04182 4.85986,-66.07922 3.22056,-99.13521 -1.38009,-6.70372 -10.04539,-2.35223 -6.56902,4.2617 0.0639,31.81236 -2.39799,63.45213 -4.25153,95.1878 0.057,3.06831 -0.0218,7.11382 3.52625,8.20739 z m -135.36329,-7.27537 c 6.03441,0.40436 4.77375,-7.75233 3.57137,-11.63542 1.28054,-17.45724 2.08863,-35.11589 3.02677,-52.62395 -1.01093,-8.24072 -11.28822,-0.78951 -7.85689,5.56467 1.65524,19.03161 -4.66315,40.85017 1.25873,58.6947 z m 150.12792,16.07635 c 4.1278,2.27709 6.9269,-3.72273 5.3148,-7.26401 0.62092,-36.95429 1.72742,-73.88583 2.74276,-110.79838 -1.96864,-4.27267 -8.56498,-1.91035 -7.56938,2.86779 1.82229,37.90275 -6.07074,78.56727 -0.48818,115.1946 z m 45.43878,8.87141 c 7.6309,-44.08107 3.00004,-95.77961 7.40239,-142.68727 -2.43699,-8.0249 -10.93979,0.40266 -7.71485,6.0751 1.33111,45.12314 -10.06405,92.63323 0.31246,136.61217 z m 48.50962,27.48128 c 46.76294,2.00712 93.69927,2.34738 140.37302,1.89925 3.03488,0.74825 3.27446,-3.5675 0.55438,-4.06187 -46.098,-1.4583 -92.33811,-2.90141 -138.56803,-3.95912 -4.58755,-0.55451 -8.11516,4.36626 -2.35937,6.12174 z m -83.70081,-3.54986 c 6.8422,-1.34432 9.95298,-17.88527 2.71984,-21.69785 -5.39265,5.52744 -4.12559,14.64603 -2.71984,21.69785 z m 30.86151,14.99441 c 8.7607,3.43753 7.81691,-11.31119 3.07261,-15.14637 -5.83995,0.78963 -1.75429,10.80718 -3.07261,15.14637 z m 15.22053,2.41132 c 11.46704,-21.74853 2.03554,-54.49149 10.45307,-78.3611 -5.0227,-29.22731 1.37744,-59.50134 -0.27539,-88.87883 -3.80303,-7.75329 -9.14318,3.70106 -7.65319,7.68214 -0.21212,53.22784 -4.64194,106.45403 -2.52449,159.55779 z m -30.90695,0.65599 c 3.96305,-8.23488 11.75187,-28.25323 2.58731,-37.19464 -6.73319,9.12138 -1.90532,25.44981 -2.58731,37.19464 z m 44.37663,26.49866 c 10.1818,-7.54806 3.13639,-29.47504 5.32335,-42.16068 3.40636,-52.03198 2.98202,-103.05013 4.73604,-155.62637 -1.75467,-0.8979 -3.93451,-1.41681 -5.66778,-0.15936 -5.93942,31.33343 -0.94202,63.35377 -5.33003,94.6857 4.1743,34.15217 -6.06863,69.79809 0.93838,103.2607 z m 51.22206,37.69302 c 46.38192,0.20994 93.85446,4.0767 139.7565,-1.05627 -43.90544,-7.57948 -93.19828,-3.75935 -139.26099,-6.04839 -5.72984,-1.06131 -6.21495,7.30054 -0.49543,7.10466 z m 41.5757,13.47263 c 29.46453,2.40496 59.18801,2.32878 88.75792,1.54911 3.08418,1.12363 4.49696,-4.50348 1.31175,-4.77555 -27.24873,-1.15266 -54.50381,-1.34413 -81.72131,-3.09708 -3.38466,-2.61998 -14.65169,3.11761 -8.34846,6.32352 z m 39.74398,15.723 c 26.26398,1.1188 52.81477,2.34847 78.9682,-0.61779 1.34189,-2.91438 -0.84827,-4.69038 -3.60234,-5.07189 -24.61987,-0.11356 -49.2823,-1.21751 -73.91416,-0.2936 -3.4724,-1.07507 -4.46135,5.41635 -1.4517,5.98328 z m 82.26702,38.30356 9.38535,0.68841 c 5.40791,-12.55198 1.83342,-26.91662 6.58621,-39.45257 l 0.25537,-3.48133 c 0.7044,-133.87088 7.96394,-268.1456 11.30771,-402.168992 0.1152,-2.61978 -2.04759,-4.41946 -3.41671,-6.37889 l -5.62355,-0.41217 c -152.46966,35.59796 -303.5746,84.052282 -440.1771,161.660152 -8.75431,4.6911 -17.17977,10.31666 -26.83845,13.0056 C 293.46461,185.89054 181.99559,169.39357 70.31023,156.02178 34.85334,153.16456 7.38221,179.6878 1.63498,212.94555 L 0,235.2358 c 5.44983,15.01516 3.43063,32.40539 12.92631,45.9224 11.21721,11.1946 25.06424,22.0179 41.90274,21.07363 115.94451,-3.44396 231.88942,-10.91341 347.80606,-16.94917 135.6979,91.85088 294.71601,143.15608 451.39178,187.94334 m -11.90575,-15.61684 c -6.45833,-2.14046 -14.80479,-3.009 -19.55097,-7.3443 7.70797,-2.48596 20.89871,1.90472 26.2616,-4.26592 -11.89602,-2.11625 -33.54478,-9.5247 -41.5467,1.86266 -51.77895,-15.24676 -103.3243,-31.57896 -153.74041,-51.07194 0.43007,-2.89153 1.21526,-5.73133 2.31089,-8.43298 43.37697,2.37394 86.89823,1.20747 130.32002,2.09776 2.69612,0.64646 8.33247,-2.26064 3.30498,-3.80887 -44.35831,-3.67682 -89.01147,-2.2856 -133.44991,-5.04528 -1.8922,-4.26704 1.54631,-8.32247 5.54662,-7.97775 34.45904,2.13022 69.04381,3.76965 103.55759,2.00645 2.58613,0.57434 4.7163,-2.94891 1.28118,-3.48291 -35.78222,-3.31703 -71.77346,-1.16222 -107.36077,-5.91363 -3.29987,-0.28076 -2.25837,-6.61436 1.11269,-5.90549 40.32736,-2.5419 84.46427,4.50329 122.93035,-1.32895 -38.51904,-9.35107 -83.54997,-1.93627 -124.23509,-7.09987 -4.15781,-5.18963 2.17328,-11.27648 7.63514,-7.78612 41.02884,0.30445 82.17773,2.11768 123.16057,0.25207 4.07829,-2.29058 -2.95799,-4.24258 -5.31527,-4.44109 -41.81059,-0.65665 -83.87115,-0.70344 -125.41779,-4.60998 -2.14084,-6.64417 -2.10606,-14.80822 1.03337,-21.07797 35.39226,-0.98075 71.00707,2.6957 106.45186,0.47523 2.82062,0.34792 2.38818,-2.14538 2.21156,-4.10698 -33.41967,-1.61812 -66.96179,-2.09132 -100.41101,-3.48085 -4.65154,2.41522 -13.82012,-4.89832 -5.66816,-6.62079 41.78499,-0.21709 83.67182,2.02209 125.52306,0.55355 5.49085,5.01813 8.05007,-2.78132 4.26211,-4.09759 -43.86679,-3.03826 -87.96081,0.34271 -131.75563,-4.54923 -5.27989,-5.27193 3.37889,-6.21364 7.41256,-6.14859 43.74548,0.67043 87.445,3.01683 131.20838,1.5219 3.58643,-5.19839 -6.83095,-4.05235 -10.5574,-5.15902 -42.76324,-1.30347 -85.68746,0.11211 -128.2855,-4.66638 -2.23603,-3.07436 1.17767,-5.56749 4.04596,-5.86992 39.89309,-0.81737 79.71877,1.73213 119.56466,-0.53732 2.20746,0.84138 3.11869,-4.06609 0.72897,-3.47217 -40.15573,-1.89419 -80.52448,-1.06046 -120.78664,-2.55232 -6.19641,-2.39037 -1.38626,-8.71697 3.63441,-7.42564 41.95795,1.27005 84.09267,3.97608 126.09863,1.09582 4.74992,-2.88241 -7.37663,-5.00268 -6.96439,-3.8058 -39.6347,-2.356 -79.56678,0.21496 -119.0544,-5.19442 -2.68178,-2.94031 3.26619,-4.50397 5.42485,-5.26871 23.80452,-1.35641 47.74449,1.73291 71.58168,0.45577 3.32163,-2.98702 -1.93034,-4.2697 -4.3354,-4.68977 -24.94907,-0.86846 -50.35276,-0.25752 -75.06176,-4.22386 -5.14282,0.19964 -4.40219,-6.92541 -0.0546,-7.64498 22.75268,0.3997 45.44493,-0.99989 68.15535,1.02501 1.43547,1.05393 12.47204,0.0301 8.92468,-4.21712 -25.25532,-3.1603 -50.96091,-1.40479 -76.19975,-4.08951 -4.71992,0.55129 -6.85901,-6.99022 -1.21425,-6.69153 21.13828,-0.48797 42.35581,0.91455 63.45922,0.55231 3.8659,0.60404 4.01666,-5.8208 0.0265,-5.25449 -21.35698,-0.89989 -42.82897,-0.75701 -64.16191,-2.33462 -2.7469,-0.30408 -2.35178,-5.86475 0.17813,-5.9228 18.82531,-1.46522 37.83387,-1.05811 56.68554,-0.0856 2.66432,-0.31737 2.33566,-2.82864 2.22657,-4.8366 -20.03381,-3.03369 -40.52709,-0.67792 -60.37861,-3.74947 -3.11949,-17.94676 31.52403,2.99188 33.42959,-12.15039 -9.92506,-5.74084 -23.52442,2.08209 -32.94305,-4.09596 -1.58014,-14.46198 24.08259,2.36913 24.97446,-10.48852 -7.63492,-4.27791 -17.58225,1.6462 -25.34914,-3.62865 -2.6555,-14.31006 16.94879,-2.44905 21.31248,-9.6802 -1.80025,-9.88842 -18.18621,1.66603 -20.08761,-8.24263 0.15966,-10.56524 19.74433,1.03745 19.94316,-9.53709 -5.07002,-3.58989 -23.42069,2.58966 -19.1212,-8.65903 19.64921,-3.08429 39.82896,-0.11687 59.58859,-1.38543 6.59353,-0.92659 -0.9185,-6.52887 -4.24746,-5.01662 -15.34502,0.33593 -30.79656,-0.84879 -46.17576,-1.2718 -3.29822,-0.65216 -13.97794,-0.47398 -8.57872,-8.01375 14.7914,-3.79972 34.3075,3.67032 46.36694,-3.43222 -10.06397,-7.866372 -30.28547,-1.87536 -43.57891,-5.38894 -5.5908,-0.85884 -3.70751,-9.579612 1.06441,-10.665512 63.95274,-21.20623 128.89458,-39.46813 194.25726,-55.77614 2.02734,-0.72309 5.05098,0.17817 4.36818,2.84607 -2.09947,139.781342 -10.00609,279.380312 -12.73616,418.846242 -3.89227,2.20165 -8.30601,2.24972 -13.24042,0.13133 M 646.4182,394.84404 C 564.75427,365.09749 486.82105,325.74006 412.54488,280.92009 c 2.8952,-25.31322 -0.0253,-52.96322 5.75877,-76.93628 70.8798,-39.78787 144.68422,-75.92528 221.73786,-102.00389 5.39962,-3.001322 19.30142,-9.353422 17.79485,2.44633 -1.90631,96.94953 -6.89431,193.78848 -8.07472,290.80409 -0.83879,-0.10052 -2.50461,-0.28628 -3.34344,-0.3863 M 51.12253,283.0243 c -30.48326,-8.4411 -37.53202,-49.54777 -26.19361,-73.56219 -5.24169,27.58986 2.8711,63.45404 34.41484,70.89603 9.62073,2.89792 -5.52902,4.9405 -8.22123,2.66616 m 21.76878,-17.64674 c -13.59551,-1.84347 -12.6749,-25.92961 2.14195,-25.35561 19.44422,-4.484 17.74768,32.80169 -2.14195,25.35561 m 223.49951,8.03522 c 13.44915,-9.26993 39.13688,-5.01386 56.80904,-7.01245 3.84225,-2.74373 12.83706,2.56981 5.58443,3.74298 -20.73329,1.60733 -41.57604,3.83496 -62.39347,3.26947 m 89.04258,-7.75056 c -6.76366,-13.53458 -6.86355,-40.83667 6.58473,-46.77323 -7.11789,14.01627 0.4291,38.54412 -6.58473,46.77323 M 217.54169,250.38547 c -18.12879,-4.53492 -9.87018,-33.40337 8.1049,-26.59771 17.0643,3.84151 9.57859,33.01019 -8.1049,26.59771 m 121.48049,3.75701 c -7.98485,-2.30391 -13.70719,-12.55666 -9.09051,-20.08981 5.49231,-13.3535 31.54849,-6.95501 28.21814,8.21084 0.69744,9.71778 -11.47477,12.94036 -19.12763,11.87897 M 76.49389,216.96243 c -15.14726,-3.05972 -10.44879,-26.21497 5.08196,-24.5373 18.04559,0.42616 11.88813,31.93597 -5.08196,24.5373 z"
       inkscape:connector-curvature="0"
       style="stroke:#ffffff;stroke-width:9;stroke-linejoin:round;stroke-miterlimit:4;stroke-dasharray:none" />
    <text
       xml:space="preserve"
       style="font-style:normal;font-variant:normal;font-weight:bold;font-stretch:normal;font-size:96.54121399px;line-height:100%;font-family:FreeSerif;-inkscape-font-specification:'FreeSerif Bold';text-align:start;letter-spacing:0px;word-spacing:0px;writing-mode:lr-tb;text-anchor:start;fill:#000000;fill-opacity:1;stroke:#ffffff;stroke-width:9;stroke-linecap:butt;stroke-linejoin:round;stroke-miterlimit:4;stroke-dasharray:none;stroke-opacity:1"
       x="-1.8587104"
       y="79.096146"
       id="text22"><tspan
         sodipodi:role="line"
         id="tspan20"
         x="-1.8587104"
         y="79.096146"
         style="font-style:normal;font-variant:normal;font-weight:bold;font-stretch:normal;font-family:FreeSerif;-inkscape-font-specification:'FreeSerif Bold';stroke:#ffffff;stroke-width:9;stroke-linejoin:round;stroke-miterlimit:4;stroke-dasharray:none">ᏣᎳᎩ ᏧᎴᎯᏌᏅᎯ</tspan></text>
    <text
       id="text26"
       y="461.6398"
       x="-1.3021547"
       style="font-style:normal;font-variant:normal;font-weight:bold;font-stretch:normal;font-size:96.54121399px;line-height:100%;font-family:FreeSerif;-inkscape-font-specification:'FreeSerif Bold';text-align:start;letter-spacing:0px;word-spacing:0px;writing-mode:lr-tb;text-anchor:start;fill:#000000;fill-opacity:1;stroke:#ffffff;stroke-width:9;stroke-linecap:butt;stroke-linejoin:round;stroke-miterlimit:4;stroke-dasharray:none;stroke-opacity:1"
       xml:space="preserve"><tspan
         style="font-style:normal;font-variant:normal;font-weight:bold;font-stretch:normal;font-family:FreeSerif;-inkscape-font-specification:'FreeSerif Bold';stroke:#ffffff;stroke-width:9;stroke-linejoin:round;stroke-miterlimit:4;stroke-dasharray:none"
         y="461.6398"
         x="-1.3021547"
         sodipodi:role="line"
         id="tspan24">ᎤᏍᏛᎪᏍᏙᏗ</tspan></text>
  </g>
  <g
     id="g16"
     transform="translate(32.060881,20.060879)">
    <path
       style="stroke-width:1.27861142"
       inkscape:connector-curvature="0"
       d="m 631.32868,144.032 c 10.4584,2.66455 11.72316,-37.99891 0.81626,-33.32457 -2.10968,10.40929 -3.85443,23.35813 -0.81626,33.32457 z m 15.20743,2.58987 c 9.84201,-6.58571 3.27581,-28.05449 4.82813,-39.95343 -1.12474,-8.261882 -11.10291,-0.51952 -7.75516,5.22607 0.92202,11.3752 -3.48697,24.64153 2.92703,34.72736 z m -30.62304,-1.11812 c 12.55856,1.99817 13.36566,-32.77583 0.91547,-29.9583 -0.28197,9.78699 -4.3061,20.42766 -0.91547,29.9583 z m 87.78778,10.05481 c 2.7531,0.39427 8.73716,0.96145 8.66067,-2.89032 -0.66485,-5.79238 -14.50212,-1.71755 -8.66067,2.89032 z m -103.45386,-7.61415 c 8.58905,-0.69055 7.09818,-15.67162 5.62282,-21.60038 -10.31871,-4.21835 -8.3074,16.77521 -5.62282,21.60038 z m -13.85871,17.12433 c 7.51362,0.51305 3.98074,-11.27202 3.79933,-16.49049 -0.0913,-5.57074 6.54536,-19.49413 -3.94015,-17.94279 -1.82581,10.55835 -4.1795,25.16767 0.14082,34.43328 z m -13.01722,-0.81327 c 8.31685,-3.6207 8.61889,-25.73953 2.09438,-32.39753 -7.82188,6.83646 -5.53054,23.83776 -2.09438,32.39753 z m -16.47318,-1.41357 c 10.53424,3.02922 9.02259,-17.2611 5.02653,-22.73375 -9.3676,0.99237 -5.67957,15.55774 -5.02653,22.73375 z m 175.61547,23.06127 c 4.99409,0.43046 10.23208,1.90446 15.28363,0.8523 5.61245,-8.52421 -23.62829,-8.38697 -15.28363,-0.8523 z m 15.40756,29.39934 c 5.59517,-0.9486 19.54059,4.16414 20.06547,-3.51528 -5.44618,2.58763 -20.57177,-5.66285 -20.06547,3.51528 z M 450.23787,234.941 c 9.47075,-2.04884 2.29604,-19.24176 5.02971,-26.27193 -1.54284,-4.48496 4.34103,-21.07892 -5.1713,-18.28955 -3.94619,13.95415 -2.8981,31.12061 0.14159,44.56148 z m 43.03149,10.57951 c 5.19032,2.12435 4.72929,-5.92222 5.28653,-8.62497 -0.0759,-22.21062 3.22617,-44.50674 0.8306,-66.55417 -10.58645,-2.84066 -5.76844,14.84598 -7.12591,20.59251 2.61915,17.60236 -5.79256,38.42123 1.00878,54.58663 z m 15.85159,9.18837 c 10.14158,-25.52521 5.64153,-62.75257 7.28043,-92.78615 -6.11709,-4.34612 -8.65942,6.01867 -7.76905,10.13521 1.75735,27.07752 -4.34875,57.01422 0.48862,82.65094 z m -30.65959,-1.49248 c 7.75761,2.95362 4.68794,-9.55355 5.89698,-13.452 -0.3872,-20.93867 1.84789,-42.1464 0.48559,-62.90013 -11.08784,-2.64656 -5.64981,16.20095 -7.69839,22.28138 2.80001,17.75662 -3.787,37.64523 1.31582,54.07075 z m 44.51677,6.06027 c 10.70867,-27.6632 2.19891,-68.42821 8.18751,-100.25805 0.85834,-9.60366 -11.26933,-5.41643 -7.92236,3.13679 0.71488,32.02665 -7.03774,66.40657 -0.26515,97.12126 z m -58.73188,-4.52613 c 4.88519,2.08916 5.25407,-7.83244 5.60708,-10.02451 0.30537,-20.06727 2.07653,-40.19367 1.16291,-60.24785 -1.49391,-8.1224 -10.43462,-1.23973 -7.39761,5.07271 2.02802,21.28977 -4.75939,44.9584 0.62762,65.19965 z m -29.63289,1.81356 c 10.6427,-0.37319 1.48262,-18.8143 5.35386,-25.27383 -1.95494,-7.60491 9.05478,-32.20753 -4.99139,-30.35324 -2.00909,18.30136 -2.45209,37.44819 -0.36247,55.62707 z m 102.96255,12.5653 c 6.733,1.89128 5.14778,-8.48127 5.29232,-13.07324 1.64689,-34.68674 0.8241,-70.31113 3.57417,-104.48107 -2.81008,-5.38555 -8.75337,-1.09077 -7.96916,3.77437 0.53993,37.73178 -5.18251,77.11961 -0.89733,113.77994 z m 61.73748,13.88757 c 7.16912,-39.3586 3.36693,-84.70141 5.71704,-126.00331 -1.0581,-5.50062 -11.82069,-1.04659 -7.14332,4.92473 2.62375,39.91031 -8.42221,82.48445 1.42628,121.07858 z m -16.37983,-1.63745 c 4.81478,2.69936 5.25425,-5.56331 4.71161,-8.12874 -0.61963,-33.6735 1.77851,-67.24104 2.33814,-100.73838 0.73877,-7.09962 -12.12198,-3.05581 -7.47555,3.86197 0.87301,34.58947 -4.75384,71.62535 0.4258,105.00515 z m -28.27935,0.48978 c 3.01577,1.18276 4.66324,-7.11946 4.07374,-8.52168 -0.39678,-33.04182 4.85986,-66.07922 3.22056,-99.13521 -1.38009,-6.70372 -10.04539,-2.35223 -6.56902,4.2617 0.0639,31.81236 -2.39799,63.45213 -4.25153,95.1878 0.057,3.06831 -0.0218,7.11382 3.52625,8.20739 z m -135.36329,-7.27537 c 6.03441,0.40436 4.77375,-7.75233 3.57137,-11.63542 1.28054,-17.45724 2.08863,-35.11589 3.02677,-52.62395 -1.01093,-8.24072 -11.28822,-0.78951 -7.85689,5.56467 1.65524,19.03161 -4.66315,40.85017 1.25873,58.6947 z m 150.12792,16.07635 c 4.1278,2.27709 6.9269,-3.72273 5.3148,-7.26401 0.62092,-36.95429 1.72742,-73.88583 2.74276,-110.79838 -1.96864,-4.27267 -8.56498,-1.91035 -7.56938,2.86779 1.82229,37.90275 -6.07074,78.56727 -0.48818,115.1946 z m 45.43878,8.87141 c 7.6309,-44.08107 3.00004,-95.77961 7.40239,-142.68727 -2.43699,-8.0249 -10.93979,0.40266 -7.71485,6.0751 1.33111,45.12314 -10.06405,92.63323 0.31246,136.61217 z m 48.50962,27.48128 c 46.76294,2.00712 93.69927,2.34738 140.37302,1.89925 3.03488,0.74825 3.27446,-3.5675 0.55438,-4.06187 -46.098,-1.4583 -92.33811,-2.90141 -138.56803,-3.95912 -4.58755,-0.55451 -8.11516,4.36626 -2.35937,6.12174 z m -83.70081,-3.54986 c 6.8422,-1.34432 9.95298,-17.88527 2.71984,-21.69785 -5.39265,5.52744 -4.12559,14.64603 -2.71984,21.69785 z m 30.86151,14.99441 c 8.7607,3.43753 7.81691,-11.31119 3.07261,-15.14637 -5.83995,0.78963 -1.75429,10.80718 -3.07261,15.14637 z m 15.22053,2.41132 c 11.46704,-21.74853 2.03554,-54.49149 10.45307,-78.3611 -5.0227,-29.22731 1.37744,-59.50134 -0.27539,-88.87883 -3.80303,-7.75329 -9.14318,3.70106 -7.65319,7.68214 -0.21212,53.22784 -4.64194,106.45403 -2.52449,159.55779 z m -30.90695,0.65599 c 3.96305,-8.23488 11.75187,-28.25323 2.58731,-37.19464 -6.73319,9.12138 -1.90532,25.44981 -2.58731,37.19464 z m 44.37663,26.49866 c 10.1818,-7.54806 3.13639,-29.47504 5.32335,-42.16068 3.40636,-52.03198 2.98202,-103.05013 4.73604,-155.62637 -1.75467,-0.8979 -3.93451,-1.41681 -5.66778,-0.15936 -5.93942,31.33343 -0.94202,63.35377 -5.33003,94.6857 4.1743,34.15217 -6.06863,69.79809 0.93838,103.2607 z m 51.22206,37.69302 c 46.38192,0.20994 93.85446,4.0767 139.7565,-1.05627 -43.90544,-7.57948 -93.19828,-3.75935 -139.26099,-6.04839 -5.72984,-1.06131 -6.21495,7.30054 -0.49543,7.10466 z m 41.5757,13.47263 c 29.46453,2.40496 59.18801,2.32878 88.75792,1.54911 3.08418,1.12363 4.49696,-4.50348 1.31175,-4.77555 -27.24873,-1.15266 -54.50381,-1.34413 -81.72131,-3.09708 -3.38466,-2.61998 -14.65169,3.11761 -8.34846,6.32352 z m 39.74398,15.723 c 26.26398,1.1188 52.81477,2.34847 78.9682,-0.61779 1.34189,-2.91438 -0.84827,-4.69038 -3.60234,-5.07189 -24.61987,-0.11356 -49.2823,-1.21751 -73.91416,-0.2936 -3.4724,-1.07507 -4.46135,5.41635 -1.4517,5.98328 z m 82.26702,38.30356 9.38535,0.68841 c 5.40791,-12.55198 1.83342,-26.91662 6.58621,-39.45257 l 0.25537,-3.48133 c 0.7044,-133.87088 7.96394,-268.1456 11.30771,-402.168992 0.1152,-2.61978 -2.04759,-4.41946 -3.41671,-6.37889 l -5.62355,-0.41217 c -152.46966,35.59796 -303.5746,84.052282 -440.1771,161.660152 -8.75431,4.6911 -17.17977,10.31666 -26.83845,13.0056 C 293.46461,185.89054 181.99559,169.39357 70.31023,156.02178 34.85334,153.16456 7.38221,179.6878 1.63498,212.94555 L 0,235.2358 c 5.44983,15.01516 3.43063,32.40539 12.92631,45.9224 11.21721,11.1946 25.06424,22.0179 41.90274,21.07363 115.94451,-3.44396 231.88942,-10.91341 347.80606,-16.94917 135.6979,91.85088 294.71601,143.15608 451.39178,187.94334 m -11.90575,-15.61684 c -6.45833,-2.14046 -14.80479,-3.009 -19.55097,-7.3443 7.70797,-2.48596 20.89871,1.90472 26.2616,-4.26592 -11.89602,-2.11625 -33.54478,-9.5247 -41.5467,1.86266 -51.77895,-15.24676 -103.3243,-31.57896 -153.74041,-51.07194 0.43007,-2.89153 1.21526,-5.73133 2.31089,-8.43298 43.37697,2.37394 86.89823,1.20747 130.32002,2.09776 2.69612,0.64646 8.33247,-2.26064 3.30498,-3.80887 -44.35831,-3.67682 -89.01147,-2.2856 -133.44991,-5.04528 -1.8922,-4.26704 1.54631,-8.32247 5.54662,-7.97775 34.45904,2.13022 69.04381,3.76965 103.55759,2.00645 2.58613,0.57434 4.7163,-2.94891 1.28118,-3.48291 -35.78222,-3.31703 -71.77346,-1.16222 -107.36077,-5.91363 -3.29987,-0.28076 -2.25837,-6.61436 1.11269,-5.90549 40.32736,-2.5419 84.46427,4.50329 122.93035,-1.32895 -38.51904,-9.35107 -83.54997,-1.93627 -124.23509,-7.09987 -4.15781,-5.18963 2.17328,-11.27648 7.63514,-7.78612 41.02884,0.30445 82.17773,2.11768 123.16057,0.25207 4.07829,-2.29058 -2.95799,-4.24258 -5.31527,-4.44109 -41.81059,-0.65665 -83.87115,-0.70344 -125.41779,-4.60998 -2.14084,-6.64417 -2.10606,-14.80822 1.03337,-21.07797 35.39226,-0.98075 71.00707,2.6957 106.45186,0.47523 2.82062,0.34792 2.38818,-2.14538 2.21156,-4.10698 -33.41967,-1.61812 -66.96179,-2.09132 -100.41101,-3.48085 -4.65154,2.41522 -13.82012,-4.89832 -5.66816,-6.62079 41.78499,-0.21709 83.67182,2.02209 125.52306,0.55355 5.49085,5.01813 8.05007,-2.78132 4.26211,-4.09759 -43.86679,-3.03826 -87.96081,0.34271 -131.75563,-4.54923 -5.27989,-5.27193 3.37889,-6.21364 7.41256,-6.14859 43.74548,0.67043 87.445,3.01683 131.20838,1.5219 3.58643,-5.19839 -6.83095,-4.05235 -10.5574,-5.15902 -42.76324,-1.30347 -85.68746,0.11211 -128.2855,-4.66638 -2.23603,-3.07436 1.17767,-5.56749 4.04596,-5.86992 39.89309,-0.81737 79.71877,1.73213 119.56466,-0.53732 2.20746,0.84138 3.11869,-4.06609 0.72897,-3.47217 -40.15573,-1.89419 -80.52448,-1.06046 -120.78664,-2.55232 -6.19641,-2.39037 -1.38626,-8.71697 3.63441,-7.42564 41.95795,1.27005 84.09267,3.97608 126.09863,1.09582 4.74992,-2.88241 -7.37663,-5.00268 -6.96439,-3.8058 -39.6347,-2.356 -79.56678,0.21496 -119.0544,-5.19442 -2.68178,-2.94031 3.26619,-4.50397 5.42485,-5.26871 23.80452,-1.35641 47.74449,1.73291 71.58168,0.45577 3.32163,-2.98702 -1.93034,-4.2697 -4.3354,-4.68977 -24.94907,-0.86846 -50.35276,-0.25752 -75.06176,-4.22386 -5.14282,0.19964 -4.40219,-6.92541 -0.0546,-7.64498 22.75268,0.3997 45.44493,-0.99989 68.15535,1.02501 1.43547,1.05393 12.47204,0.0301 8.92468,-4.21712 -25.25532,-3.1603 -50.96091,-1.40479 -76.19975,-4.08951 -4.71992,0.55129 -6.85901,-6.99022 -1.21425,-6.69153 21.13828,-0.48797 42.35581,0.91455 63.45922,0.55231 3.8659,0.60404 4.01666,-5.8208 0.0265,-5.25449 -21.35698,-0.89989 -42.82897,-0.75701 -64.16191,-2.33462 -2.7469,-0.30408 -2.35178,-5.86475 0.17813,-5.9228 18.82531,-1.46522 37.83387,-1.05811 56.68554,-0.0856 2.66432,-0.31737 2.33566,-2.82864 2.22657,-4.8366 -20.03381,-3.03369 -40.52709,-0.67792 -60.37861,-3.74947 -3.11949,-17.94676 31.52403,2.99188 33.42959,-12.15039 -9.92506,-5.74084 -23.52442,2.08209 -32.94305,-4.09596 -1.58014,-14.46198 24.08259,2.36913 24.97446,-10.48852 -7.63492,-4.27791 -17.58225,1.6462 -25.34914,-3.62865 -2.6555,-14.31006 16.94879,-2.44905 21.31248,-9.6802 -1.80025,-9.88842 -18.18621,1.66603 -20.08761,-8.24263 0.15966,-10.56524 19.74433,1.03745 19.94316,-9.53709 -5.07002,-3.58989 -23.42069,2.58966 -19.1212,-8.65903 19.64921,-3.08429 39.82896,-0.11687 59.58859,-1.38543 6.59353,-0.92659 -0.9185,-6.52887 -4.24746,-5.01662 -15.34502,0.33593 -30.79656,-0.84879 -46.17576,-1.2718 -3.29822,-0.65216 -13.97794,-0.47398 -8.57872,-8.01375 14.7914,-3.79972 34.3075,3.67032 46.36694,-3.43222 -10.06397,-7.866372 -30.28547,-1.87536 -43.57891,-5.38894 -5.5908,-0.85884 -3.70751,-9.579612 1.06441,-10.665512 63.95274,-21.20623 128.89458,-39.46813 194.25726,-55.77614 2.02734,-0.72309 5.05098,0.17817 4.36818,2.84607 -2.09947,139.781342 -10.00609,279.380312 -12.73616,418.846242 -3.89227,2.20165 -8.30601,2.24972 -13.24042,0.13133 M 646.4182,394.84404 C 564.75427,365.09749 486.82105,325.74006 412.54488,280.92009 c 2.8952,-25.31322 -0.0253,-52.96322 5.75877,-76.93628 70.8798,-39.78787 144.68422,-75.92528 221.73786,-102.00389 5.39962,-3.001322 19.30142,-9.353422 17.79485,2.44633 -1.90631,96.94953 -6.89431,193.78848 -8.07472,290.80409 -0.83879,-0.10052 -2.50461,-0.28628 -3.34344,-0.3863 M 51.12253,283.0243 c -30.48326,-8.4411 -37.53202,-49.54777 -26.19361,-73.56219 -5.24169,27.58986 2.8711,63.45404 34.41484,70.89603 9.62073,2.89792 -5.52902,4.9405 -8.22123,2.66616 m 21.76878,-17.64674 c -13.59551,-1.84347 -12.6749,-25.92961 2.14195,-25.35561 19.44422,-4.484 17.74768,32.80169 -2.14195,25.35561 m 223.49951,8.03522 c 13.44915,-9.26993 39.13688,-5.01386 56.80904,-7.01245 3.84225,-2.74373 12.83706,2.56981 5.58443,3.74298 -20.73329,1.60733 -41.57604,3.83496 -62.39347,3.26947 m 89.04258,-7.75056 c -6.76366,-13.53458 -6.86355,-40.83667 6.58473,-46.77323 -7.11789,14.01627 0.4291,38.54412 -6.58473,46.77323 M 217.54169,250.38547 c -18.12879,-4.53492 -9.87018,-33.40337 8.1049,-26.59771 17.0643,3.84151 9.57859,33.01019 -8.1049,26.59771 m 121.48049,3.75701 c -7.98485,-2.30391 -13.70719,-12.55666 -9.09051,-20.08981 5.49231,-13.3535 31.54849,-6.95501 28.21814,8.21084 0.69744,9.71778 -11.47477,12.94036 -19.12763,11.87897 M 76.49389,216.96243 c -15.14726,-3.05972 -10.44879,-26.21497 5.08196,-24.5373 18.04559,0.42616 11.88813,31.93597 -5.08196,24.5373 z"
       id="path70" />
    <text
       id="text12"
       y="79.096146"
       x="-1.8587104"
       style="font-style:normal;font-variant:normal;font-weight:bold;font-stretch:normal;font-size:96.54121399px;line-height:100%;font-family:FreeSerif;-inkscape-font-specification:'FreeSerif Bold';text-align:start;letter-spacing:0px;word-spacing:0px;writing-mode:lr-tb;text-anchor:start;fill:#000000;fill-opacity:1;stroke:none;stroke-width:3.21804023px;stroke-linecap:butt;stroke-linejoin:miter;stroke-opacity:1"
       xml:space="preserve"><tspan
         style="font-style:normal;font-variant:normal;font-weight:bold;font-stretch:normal;font-family:FreeSerif;-inkscape-font-specification:'FreeSerif Bold';stroke-width:3.21804023px"
         y="79.096146"
         x="-1.8587104"
         id="tspan10"
         sodipodi:role="line">ᏣᎳᎩ ᏧᎴᎯᏌᏅᎯ</tspan></text>
    <text
       xml:space="preserve"
       style="font-style:normal;font-variant:normal;font-weight:bold;font-stretch:normal;font-size:96.54121399px;line-height:100%;font-family:FreeSerif;-inkscape-font-specification:'FreeSerif Bold';text-align:start;letter-spacing:0px;word-spacing:0px;writing-mode:lr-tb;text-anchor:start;fill:#000000;fill-opacity:1;stroke:none;stroke-width:3.21804023px;stroke-linecap:butt;stroke-linejoin:miter;stroke-opacity:1"
       x="-1.3021547"
       y="461.6398"
       id="text39"><tspan
         id="tspan41"
         sodipodi:role="line"
         x="-1.3021547"
         y="461.6398"
         style="font-style:normal;font-variant:normal;font-weight:bold;font-stretch:normal;font-family:FreeSerif;-inkscape-font-specification:'FreeSerif Bold';stroke-width:3.21804023px">ᎤᏍᏛᎪᏍᏙᏗ</tspan></text>
  </g>
</svg>
